<svg id="Layer_1" data-name="Layer 1" xmlns="http://www.w3.org/2000/svg" viewBox="0 0 370.67 370.67">
  <path d="M71,147.18c36.17,50.45,72.34,100.89,108.51,151.35h-30.3c-26.1-37.36-52.2-74.73-78.3-112.09.03-13.08.06-26.18.09-39.26Z"/>
  <polygon points="71 72.14 99.72 72.14 262.17 298.52 233.81 298.52 71 72.14"/>
  <polygon points="291.94 340 130.48 340 30.55 202.33 30.55 30.67 69.98 30.67 88.82 56.93 55.78 56.93 55.78 191.62 141.29 313.74 273.1 313.74 291.94 340"/>
  <path d="M205.63,194.8l-17.28-23.97c1.07-.04,2.15-.07,3.23-.11,4.17-.3,13.54-1.61,21.59-8.76,14.62-12.99,11.36-33.25,10.97-35.44-.59-3.26-2.01-10.71-8.16-17.59-7.69-8.61-17.54-10.49-20.65-10.97-20-.24-40.01-.48-60.01-.72l-18.1-25.11h81.26c5.21,1.08,25.41,5.92,39.43,25.06,10.6,14.48,11.98,29.37,12.24,34.67.27,5.69.11,17.88-6.12,30.6-9.57,19.54-27.67,28.52-38.39,32.32Z"/>
  <path d="M340.12,340h-29.82l-95.07-131.88-.2-.28c9.73-4.17,30.8-15.39,42.58-39.84,2.51-5.21,11.94-25.44,6.46-49.97-3.14-14.04-9.92-23.93-12.91-28.22-3.15-4.5-9.82-13.83-22.1-21.75-11.32-7.3-22.17-10.01-28.89-11.13h-93.92l-18.93-26.26h112.85c43.69,6.37,78.86,38.83,88.04,80.9,8.4,38.49-6.3,78.95-37.73,104.01,29.88,41.47,59.77,82.94,89.65,124.41Z"/>
</svg>