<svg id="Layer_1" data-name="Layer 1" xmlns="http://www.w3.org/2000/svg" viewBox="0 0 480.47 164">
  <defs>
    <style>
      .cls-1, .cls-2 {
        fill: #fff;
      }

      .cls-2 {
        font-family: Jost-Medium, Jost;
        font-size: 99px;
        font-weight: 500;
      }

      .cls-3 {
        letter-spacing: -.02em;
      }
    </style>
  </defs>
  <g>
    <path class="cls-1" d="M57.85,71.14c10.3,14.36,20.6,28.73,30.89,43.09h-8.63c-7.43-10.64-14.86-21.28-22.29-31.91,0-3.73.02-7.45.03-11.18Z"/>
    <polygon class="cls-1" points="57.85 49.77 66.03 49.77 112.28 114.23 104.21 114.23 57.85 49.77"/>
    <polygon class="cls-1" points="120.76 126.03 74.79 126.03 46.34 86.84 46.34 37.97 57.56 37.97 62.93 45.44 53.52 45.44 53.52 83.79 77.87 118.56 115.39 118.56 120.76 126.03"/>
    <path class="cls-1" d="M96.18,84.69l-4.92-6.82c.31-.01.61-.02.92-.03,1.19-.09,3.86-.46,6.15-2.49,4.16-3.7,3.23-9.47,3.12-10.09-.17-.93-.57-3.05-2.32-5.01-2.19-2.45-4.99-2.99-5.88-3.12-5.7-.07-11.39-.14-17.09-.21l-5.15-7.15h23.13c1.48.31,7.23,1.69,11.23,7.14,3.02,4.12,3.41,8.36,3.48,9.87.08,1.62.03,5.09-1.74,8.71-2.72,5.56-7.88,8.12-10.93,9.2Z"/>
    <path class="cls-1" d="M134.48,126.03h-8.49l-27.07-37.55-.06-.08c2.77-1.19,8.77-4.38,12.12-11.34.71-1.48,3.4-7.24,1.84-14.23-.89-4-2.82-6.81-3.68-8.03-.9-1.28-2.8-3.94-6.29-6.19-3.22-2.08-6.31-2.85-8.23-3.17h-26.74l-5.39-7.48h32.13c12.44,1.81,22.45,11.06,25.06,23.03,2.39,10.96-1.79,22.48-10.74,29.61,8.51,11.81,17.02,23.61,25.52,35.42Z"/>
  </g>
  <text class="cls-2" transform="translate(147.77 118.66)"><tspan x="0" y="0">R</tspan><tspan class="cls-3" x="58.9" y="0">ev</tspan><tspan x="156.32" y="0">ont</tspan></text>
</svg>